<?xml version="1.0" encoding="UTF-8"?>
<svg width="75px" height="82px" viewBox="0 0 75 82" version="1.1" xmlns="http://www.w3.org/2000/svg" xmlns:xlink="http://www.w3.org/1999/xlink">
    <!-- Generator: Sketch 53.2 (72643) - https://sketchapp.com -->
    <title>ic_tabletAkaash</title>
    <desc>Created with Sketch.</desc>
    <g id="Micro-website" stroke="none" stroke-width="1" fill="none" fill-rule="evenodd">
        <g id="CBT-Landing-Page" transform="translate(-906.000000, -996.000000)">
            <g id="Group-28" transform="translate(906.000000, 996.000000)">
                <g id="ic_tabletAkaash">
                    <g id="Oval_looper" transform="translate(33.000000, 0.000000)">
                        <circle id="Oval_16" fill="#D8D8D8" cx="20" cy="20" r="1"></circle>
                        <circle id="Oval_12" stroke="#F6B72C" fill="#F6B72C" cx="20" cy="14" r="1"></circle>
                        <circle id="Oval_8" fill="#D8D8D8" cx="20" cy="7" r="1"></circle>
                        <circle id="Oval_4" fill="#D8D8D8" cx="20" cy="1" r="1"></circle>
                        <circle id="Oval_16" fill="#D8D8D8" cx="20" cy="45" r="1"></circle>
                        <circle id="Oval_12" fill="#D8D8D8" cx="20" cy="39" r="1"></circle>
                        <circle id="Oval_8" fill="#D8D8D8" cx="20" cy="32" r="1"></circle>
                        <circle id="Oval_4" fill="#D8D8D8" cx="20" cy="26" r="1"></circle>
                        <circle id="Oval_15" fill="#D8D8D8" cx="14" cy="20" r="1"></circle>
                        <circle id="Oval_11" fill="#D8D8D8" cx="14" cy="14" r="1"></circle>
                        <circle id="Oval_7" fill="#D8D8D8" cx="14" cy="7" r="1"></circle>
                        <circle id="Oval_3" fill="#D8D8D8" cx="14" cy="1" r="1"></circle>
                        <circle id="Oval_16" fill="#D8D8D8" cx="14" cy="45" r="1"></circle>
                        <circle id="Oval_12" fill="#D8D8D8" cx="14" cy="39" r="1"></circle>
                        <circle id="Oval_8" fill="#D8D8D8" cx="14" cy="32" r="1"></circle>
                        <circle id="Oval_4" fill="#D8D8D8" cx="14" cy="26" r="1"></circle>
                        <circle id="Oval_14" fill="#D8D8D8" cx="7" cy="19" r="1"></circle>
                        <circle id="Oval_10" fill="#D8D8D8" cx="7" cy="13" r="1"></circle>
                        <circle id="Oval_6" fill="#D8D8D8" cx="7" cy="7" r="1"></circle>
                        <circle id="Oval_2" fill="#D8D8D8" cx="7" cy="1" r="1"></circle>
                        <circle id="Oval_13" fill="#D8D8D8" cx="1" cy="19" r="1"></circle>
                        <circle id="Oval_9" fill="#D8D8D8" cx="1" cy="13" r="1"></circle>
                        <circle id="Oval_5" fill="#D8D8D8" cx="1" cy="7" r="1"></circle>
                        <circle id="Oval_1" fill="#D8D8D8" cx="1" cy="1" r="1"></circle>
                        <circle id="Oval_16" fill="#D8D8D8" cx="40" cy="20" r="1"></circle>
                        <circle id="Oval_12" fill="#D8D8D8" cx="40" cy="14" r="1"></circle>
                        <circle id="Oval_8" fill="#D8D8D8" cx="40" cy="7" r="1"></circle>
                        <circle id="Oval_4" fill="#D8D8D8" cx="40" cy="1" r="1"></circle>
                        <circle id="Oval_16" fill="#D8D8D8" cx="40" cy="45" r="1"></circle>
                        <circle id="Oval_12" fill="#D8D8D8" cx="40" cy="39" r="1"></circle>
                        <circle id="Oval_8" fill="#D8D8D8" cx="40" cy="32" r="1"></circle>
                        <circle id="Oval_4" fill="#F6B72C" cx="40" cy="26" r="2"></circle>
                        <circle id="Oval_15" fill="#D8D8D8" cx="33" cy="20" r="1"></circle>
                        <circle id="Oval_11" fill="#D8D8D8" cx="33" cy="14" r="1"></circle>
                        <circle id="Oval_7" fill="#D8D8D8" cx="33" cy="7" r="1"></circle>
                        <circle id="Oval_16" fill="#D8D8D8" cx="33" cy="45" r="1"></circle>
                        <circle id="Oval_12" fill="#D8D8D8" cx="33" cy="39" r="1"></circle>
                        <circle id="Oval_8" fill="#D8D8D8" cx="33" cy="32" r="1"></circle>
                        <circle id="Oval_4" fill="#D8D8D8" cx="33" cy="26" r="1"></circle>
                        <circle id="Oval_3" fill="#D8D8D8" cx="33" cy="1" r="1"></circle>
                        <circle id="Oval_14" fill="#D8D8D8" cx="26" cy="20" r="1"></circle>
                        <circle id="Oval_10" fill="#D8D8D8" cx="26" cy="14" r="1"></circle>
                        <circle id="Oval_6" fill="#D8D8D8" cx="26" cy="7" r="1"></circle>
                        <circle id="Oval_16" fill="#D8D8D8" cx="26" cy="45" r="1"></circle>
                        <circle id="Oval_12" fill="#D8D8D8" cx="26" cy="39" r="1"></circle>
                        <circle id="Oval_8" fill="#F6B72C" cx="26" cy="32" r="1"></circle>
                        <circle id="Oval_4" fill="#D8D8D8" cx="26" cy="26" r="1"></circle>
                        <circle id="Oval_2" fill="#D8D8D8" cx="26" cy="1" r="1"></circle>
                    </g>
                    <g id="noun_Tablet_904025" transform="translate(0.000000, 22.000000)">
                        <path d="M42,0.5 L2,0.5 C0.8954305,0.5 0,1.3954305 0,2.5 L0,57.5 C0,58.6045695 0.8954305,59.5 2,59.5 L42,59.5 C43.1045695,59.5 44,58.6045695 44,57.5 L44,2.5 C44,1.3954305 43.1045695,0.5 42,0.5 Z M22,3 C22.5522847,3 23,3.44771525 23,4 C23,4.55228475 22.5522847,5 22,5 C21.4477153,5 21,4.55228475 21,4 C21,3.44771525 21.4477153,3 22,3 Z M22,57 C20.6192881,57 19.5,55.8807119 19.5,54.5 C19.5,53.1192881 20.6192881,52 22,52 C23.3807119,52 24.5,53.1192881 24.5,54.5 C24.5,55.8807119 23.3807119,57 22,57 Z M3,49.5 L3,7.5 L41,7.5 L41,49.5 L3,49.5 Z" id="Shape" fill="#2B3B4E" fill-rule="nonzero"></path>
                        <g id="Group-26" transform="translate(5.000000, 22.000000)">
                            <rect id="Rectangle" fill="#54C0EB" x="0" y="0" width="6" height="6"></rect>
                            <rect id="Rectangle-3" fill="#E6E9EE" fill-rule="nonzero" x="8" y="0" width="14" height="2"></rect>
                            <rect id="Rectangle-3" fill="#E6E9EE" fill-rule="nonzero" x="8" y="4" width="10" height="2"></rect>
                        </g>
                        <g id="Group-26" transform="translate(5.000000, 31.000000)">
                            <rect id="Rectangle" fill="#54C0EB" x="0" y="0" width="6" height="6"></rect>
                            <rect id="Rectangle-3" fill="#E6E9EE" fill-rule="nonzero" x="8" y="0" width="14" height="2"></rect>
                            <rect id="Rectangle-3" fill="#E6E9EE" fill-rule="nonzero" x="8" y="4" width="10" height="2"></rect>
                        </g>
                        <g id="Group-26" transform="translate(5.000000, 40.000000)">
                            <rect id="Rectangle" fill="#54C0EB" x="0" y="0" width="6" height="6"></rect>
                            <rect id="Rectangle-3" fill="#E6E9EE" fill-rule="nonzero" x="8" y="0" width="14" height="2"></rect>
                            <rect id="Rectangle-3" fill="#E6E9EE" fill-rule="nonzero" x="8" y="4" width="10" height="2"></rect>
                        </g>
                        <g id="Group-26" transform="translate(5.000000, 48.000000)">
                            <rect id="Rectangle" fill="#54C0EB" x="0" y="0" width="6" height="1"></rect>
                            <rect id="Rectangle-3" fill="#E6E9EE" fill-rule="nonzero" x="8" y="0" width="14" height="1"></rect>
                        </g>
                        <rect id="Rectangle-3" fill="#54C0EB" fill-rule="nonzero" x="5" y="11" width="33" height="3"></rect>
                        <rect id="Rectangle-3" fill="#E6E9EE" fill-rule="nonzero" x="5" y="16" width="26" height="3"></rect>
                    </g>
                </g>
            </g>
        </g>
    </g>
</svg>